<svg width="20" height="22" viewBox="0 0 20 22" xmlns="http://www.w3.org/2000/svg"><g fill="none"><path d="M12.61 2.235c-.324-.106-.676.072-.782.4-.106.325.073.675.4.78 3.467 1.127 5.796 4.335 5.796 7.984 0 4.623-3.764 8.387-8.39 8.387-4.628 0-8.392-3.764-8.392-8.39 0-2.242.873-4.348 2.457-5.934.935-.935 2.09-1.644 3.34-2.05.328-.105.506-.456.4-.782-.106-.325-.455-.507-.782-.4-1.437.468-2.764 1.28-3.84 2.355C1.003 6.405 0 8.825 0 11.4c0 5.31 4.322 9.63 9.633 9.63 5.31 0 9.633-4.32 9.633-9.632 0-4.19-2.675-7.872-6.656-9.163" fill="#FFF"/><path d="M9.633 6.027c.343 0 .62-.278.62-.62V.62c0-.342-.277-.62-.62-.62-.343 0-.62.278-.62.62L9.01 5.407c.002.343.28.62.623.62" fill="#FEFEFE"/></g></svg>