<svg width="20" height="22" viewBox="0 0 20 22" xmlns="http://www.w3.org/2000/svg"><g fill="none"><path d="M12.61 2.235a.62.62 0 1 0-.382 1.18 8.372 8.372 0 0 1 5.796 7.984c0 4.623-3.764 8.387-8.39 8.387-4.628 0-8.392-3.764-8.392-8.39 0-2.242.873-4.348 2.457-5.934a8.431 8.431 0 0 1 3.34-2.05.621.621 0 1 0-.382-1.182 9.71 9.71 0 0 0-3.84 2.355A9.594 9.594 0 0 0 0 11.4c0 5.31 4.322 9.63 9.633 9.63 5.31 0 9.633-4.32 9.633-9.632a9.605 9.605 0 0 0-6.656-9.163" fill="#FFF"/><path d="M9.633 6.027a.62.62 0 0 0 .62-.62V.62a.62.62 0 1 0-1.24 0L9.01 5.407c.002.343.28.62.623.62" fill="#FEFEFE"/></g></svg>